<?xml version="1.0" encoding="UTF-8"?>
<svg id="Layer_1" data-name="Layer 1" xmlns="http://www.w3.org/2000/svg" viewBox="0 0 239.38 74.5">
  <defs>
    <style>
      .cls-1 {
        fill: #ad396e;
      }

      .cls-2 {
        fill: #122213;
      }

      .cls-3 {
        fill: #fff;
      }
    </style>
  </defs>
  <path class="cls-1" d="M204.22.28c52.12-5.89,43.4,84.26-7.08,73.29-7.5-1.63-10.93-5.65-16.96-8.12-7.32-2.99-9.64,1.02-15.27,4.01-8.14,4.32-16.64,6.1-25.26,1.64-3.61-1.87-8.42-8.13-12.45-8.31-3.8-.17-12.38,6.26-16.63,7.93-11.71,4.59-27.14,3.01-39.49,2.44-10.9-.5-22.15,1.04-29.72-8.44-3.53-4.42-3.64-10.32-10.32-5.94s-17.66,21.57-27.05,10.6c-9.61-11.22.03-47.61,9-58.1S44,.67,57.42,1.77c10.43.85,12.95,6.67,19.89,8.46s16.77-5.65,24.12-7.53c8.29-2.12,17.17-1.9,24.78,2.24,5.82,3.17,5.51,5.27,13.38,3.21,10.9-2.87,14.25-7.08,27.35-5.77,5.24.52,11.18,4.27,15.82,4.23,6.89-.05,14.25-5.51,21.47-6.33ZM203.67,7.36c-36.68,4.18-39.07,61.48,1.48,58.18,10.92-.89,24.25-9.18,27.27-20.15,5.64-20.47-6.08-40.61-28.75-38.02ZM55.53,12.12c.09-2.76-2.12-4.07-4.63-4.37-4.88-.58-12.85-.13-18.02-.01-2.72.06-5.4-.08-8.15.03-5.85.25-8.3,1.26-9.93,6.97-2.68,9.36-5.18,22.43-7.08,32.18-.71,3.64-2.37,10.06-2.26,13.48.19,5.59,7.33,5.88,11.5,5.04,8.07-1.63,5.12-18.3,8.94-20.64,2.98-1.82,12.08-.12,16.2-.57,2.56-.28,4.47-.86,6.33-2.66-.42,7.48-8.19,20.73,2.49,23.95,8.79-.39,19.12.48,27.77-.51,2.13-.24,3.4-1.16,5.17-2.18.03,4.55,10.52,3.8,13.05,2.41.71-.39,1.36-1.63,1.94-1.69.53-.06,2.12.85,3.28.92,2.74.16,9.5.42,11.88-.12,2.52-.57,10.77-9.75,12.91-12.17.82-.93,1.88-2.32,2.21-3.53,3.79,2.74,5.87,14.2,10.32,15.57,2,.62,7.22.34,9.59.26,3.99-.13,2.23-.77,6.22.28,1.92.51,7.95.04,10-.41,1.48-.33,2.91-1.81,3.28-3.27l10.76-47.58c.07-2.96.23-4.48-3.15-5.07-2.84-.5-10.64-.97-12.06,1.85l-11.25,47.1c-.56-4.2-11.51-18.15-11.09-20.87s9.82-10.07,12.2-12.38,12.18-11.34,7.74-14.36c-3.09-2.11-9.93-2.59-13.34-1.05-2.41,1.09-13.99,15.44-14.85,14.85-2.38-3.35-5.45-13.15-8.89-14.84-2.51-1.24-7.13-.91-9.88-.38-1.98.37-3.49.8-4.41,2.67-2.44-3.05-6.75-3.13-10.36-2.72-4.15.48-5.31,2.96-6.55,6.54-3.85,11.17-4.61,25.11-8.45,36.53-5.76-3.89-14.09-1.84-20.71-1.63-.73-.73,3.4-17.78,3.98-20.29.89-3.9,4.73-14.86,4.11-18.02-.96-4.89-10.43-4.45-13.73-2.5-1.51.89-1.88,2.24-3.08,3.18Z"/>
  <path class="cls-3" d="M55.53,12.12c1.19-.94,1.56-2.29,3.08-3.18,3.29-1.95,12.77-2.39,13.73,2.5.62,3.16-3.22,14.12-4.11,18.02-.57,2.51-4.71,19.56-3.98,20.29,6.62-.21,14.95-2.25,20.71,1.63,3.84-11.42,4.6-25.36,8.45-36.53,1.24-3.58,2.4-6.06,6.55-6.54,3.61-.42,7.92-.34,10.36,2.72.92-1.87,2.43-2.3,4.41-2.67,2.75-.52,7.37-.85,9.88.38,3.43,1.69,6.51,11.48,8.89,14.84.86.6,12.44-13.75,14.85-14.85,3.41-1.54,10.24-1.06,13.34,1.05,4.44,3.02-5.38,12.07-7.74,14.36s-11.77,9.58-12.2,12.38,10.53,16.68,11.09,20.87l11.25-47.1c1.42-2.82,9.23-2.35,12.06-1.85,3.38.6,3.22,2.11,3.15,5.07l-10.76,47.58c-.36,1.46-1.8,2.94-3.28,3.27-2.05.46-8.08.92-10,.41-3.99-1.05-2.23-.41-6.22-.28-2.37.07-7.59.35-9.59-.26-4.45-1.37-6.53-12.82-10.32-15.57-.33,1.21-1.39,2.6-2.21,3.53-2.14,2.42-10.39,11.6-12.91,12.17-2.38.54-9.13.28-11.88.12-1.16-.07-2.76-.97-3.28-.92-.58.06-1.23,1.31-1.94,1.69-2.53,1.38-13.02,2.14-13.05-2.41-1.77,1.02-3.04,1.94-5.17,2.18-8.65.99-18.97.12-27.77.51-10.69-3.22-2.91-16.47-2.49-23.95-1.86,1.8-3.77,2.38-6.33,2.66-4.12.45-13.22-1.25-16.2.57-3.82,2.34-.87,19.01-8.94,20.64-4.17.84-11.31.56-11.5-5.04-.11-3.42,1.55-9.84,2.26-13.48,1.89-9.74,4.4-22.82,7.08-32.18,1.63-5.7,4.08-6.72,9.93-6.97,2.75-.12,5.43.03,8.15-.03,5.18-.12,13.14-.57,18.02.01,2.51.3,4.72,1.61,4.63,4.37ZM52.25,11.58h-31.89l-11.72,49.62h7.9l5.23-21.21,22.48-.03,1.99-7.66h-22.35l2.78-13.03,23.57-.03,2-7.66ZM68.6,11.58h-7.9l-11.72,49.62h31.62l1.09-7.63h-22.35l9.27-41.98ZM106.76,11.58h-7.9l-11.72,49.62h7.9l11.72-49.62ZM160.19,11.58h-10.63l-16.9,17.44-9.81-17.44h-8.99l12.47,24.15-24.46,25.47h11.18l17.71-18.54,10.09,18.54h8.99l-13.01-24.69,23.37-24.92ZM175.99,11.58h-7.9l-11.72,49.62h7.9l11.72-49.62ZM116.38,40.83c1.74-1.81,5.5-5.28,5-7.59l-10.8-18.93-9.27,40.89c4.8-4.93,10.31-9.42,15.07-14.37ZM30.17,27.39h15.81c2.61,0,5.15,3.41,4.91,6l2.45-11.45c-6.46,4.95-15.55,2.05-23.1,2.15-.51.14-1.28,2.96-.06,3.3Z"/>
  <path class="cls-3" d="M203.67,7.36c22.67-2.59,34.39,17.55,28.75,38.02-3.02,10.98-16.35,19.27-27.27,20.15-40.55,3.3-38.16-54-1.48-58.18ZM224.86,17.22c-8.29-8.8-23.75-8.25-33.24-1.73-23.4,16.04-12.1,55.11,19.67,45.3,17.25-5.33,26.48-29.86,13.57-43.57Z"/>
  <polygon class="cls-2" points="160.19 11.58 136.82 36.5 149.83 61.19 140.83 61.19 130.74 42.65 113.03 61.19 101.86 61.19 126.32 35.72 113.85 11.58 122.84 11.58 132.66 29.01 149.56 11.58 160.19 11.58"/>
  <polygon class="cls-2" points="52.25 11.58 50.26 19.23 26.68 19.26 23.9 32.29 46.25 32.29 44.26 39.95 21.78 39.98 16.55 61.19 8.64 61.19 20.36 11.58 52.25 11.58"/>
  <polygon class="cls-2" points="68.6 11.58 59.34 53.56 81.69 53.56 80.6 61.19 48.98 61.19 60.7 11.58 68.6 11.58"/>
  <polygon class="cls-2" points="106.76 11.58 95.04 61.19 87.14 61.19 98.86 11.58 106.76 11.58"/>
  <polygon class="cls-2" points="175.99 11.58 164.27 61.19 156.37 61.19 168.09 11.58 175.99 11.58"/>
  <path class="cls-1" d="M116.38,40.83c-4.76,4.95-10.26,9.44-15.07,14.37l9.27-40.89,10.8,18.93c.5,2.31-3.26,5.78-5,7.59Z"/>
  <path class="cls-1" d="M30.17,27.39c-1.22-.34-.45-3.16.06-3.3,7.55-.1,16.63,2.8,23.1-2.15l-2.45,11.45c.24-2.59-2.29-6-4.91-6h-15.81Z"/>
  <path class="cls-2" d="M224.86,17.22c12.91,13.71,3.69,38.24-13.57,43.57-31.78,9.81-43.07-29.26-19.67-45.3,9.49-6.51,24.95-7.06,33.24,1.73ZM204.75,18.81c-19.1,2.6-22.68,32.91-5,35.25,26.13,3.46,30.77-38.76,5-35.25Z"/>
  <path class="cls-3" d="M204.75,18.81c25.77-3.51,21.13,38.72-5,35.25-17.68-2.34-14.1-32.65,5-35.25ZM196.78,25.82l-2.27,18.23c.27,3.11.57,3.84,3.58,2.99,2.15-.61,19.6-7.81,20.19-8.74s-.54-2.14-1.21-2.66c-2.34-1.82-13.6-8.09-16.42-9.2-1.25-.49-2.5-.95-3.88-.62Z"/>
  <path class="cls-2" d="M196.78,25.82c1.37-.33,2.63.13,3.88.62,2.83,1.11,14.09,7.38,16.42,9.2.66.52,1.8,1.74,1.21,2.66s-18.04,8.13-20.19,8.74c-3.01.85-3.31.12-3.58-2.99l2.27-18.23Z"/>
</svg>